<mxfile host="app.diagrams.net" modified="2023-05-02T22:32:14.765Z" agent="Mozilla/5.0 (Macintosh; Intel Mac OS X 10_15_7) AppleWebKit/537.36 (KHTML, like Gecko) Chrome/112.0.0.0 Safari/537.36" etag="x72e8npCMskCrjn79u-w" version="21.2.4" type="github">
  <diagram name="Page-1" id="13e1069c-82ec-6db2-03f1-153e76fe0fe0">
    <mxGraphModel dx="1306" dy="734" grid="1" gridSize="10" guides="1" tooltips="1" connect="1" arrows="1" fold="1" page="1" pageScale="1" pageWidth="1100" pageHeight="850" background="none" math="0" shadow="0">
      <root>
        <mxCell id="0" />
        <mxCell id="1" parent="0" />
        <mxCell id="BmvCwLx_1x8dqe_CR5D9-1" value="Gallatin" style="shape=umlLifeline;perimeter=lifelinePerimeter;whiteSpace=wrap;html=1;container=1;collapsible=0;recursiveResize=0;outlineConnect=0;rounded=1;shadow=0;comic=0;labelBackgroundColor=none;strokeWidth=1;fontFamily=Verdana;fontSize=12;align=center;" vertex="1" parent="1">
          <mxGeometry x="250" y="90" width="100" height="590" as="geometry" />
        </mxCell>
        <mxCell id="BmvCwLx_1x8dqe_CR5D9-2" value="" style="html=1;points=[];perimeter=orthogonalPerimeter;rounded=0;shadow=0;comic=0;labelBackgroundColor=none;strokeWidth=1;fontFamily=Verdana;fontSize=12;align=center;" vertex="1" parent="BmvCwLx_1x8dqe_CR5D9-1">
          <mxGeometry x="45" y="100" width="10" height="490" as="geometry" />
        </mxCell>
        <mxCell id="BmvCwLx_1x8dqe_CR5D9-3" value="[Authorization OK]" style="text;html=1;align=center;verticalAlign=middle;resizable=0;points=[];autosize=1;strokeColor=none;fillColor=none;" vertex="1" parent="BmvCwLx_1x8dqe_CR5D9-1">
          <mxGeometry x="-85" y="370" width="120" height="30" as="geometry" />
        </mxCell>
        <mxCell id="BmvCwLx_1x8dqe_CR5D9-4" value="[Authorization OK]" style="text;html=1;align=center;verticalAlign=middle;resizable=0;points=[];autosize=1;strokeColor=none;fillColor=none;" vertex="1" parent="BmvCwLx_1x8dqe_CR5D9-1">
          <mxGeometry x="-85" y="490" width="120" height="30" as="geometry" />
        </mxCell>
        <mxCell id="4loeCHfUMF7lGxp9gsLd-17" value="Gallatin" style="shape=umlLifeline;perimeter=lifelinePerimeter;whiteSpace=wrap;html=1;container=1;collapsible=0;recursiveResize=0;outlineConnect=0;rounded=1;shadow=0;comic=0;labelBackgroundColor=none;strokeWidth=1;fontFamily=Verdana;fontSize=12;align=center;" vertex="1" parent="1">
          <mxGeometry x="250" y="90" width="100" height="590" as="geometry" />
        </mxCell>
        <mxCell id="4loeCHfUMF7lGxp9gsLd-18" value="" style="html=1;points=[];perimeter=orthogonalPerimeter;rounded=0;shadow=0;comic=0;labelBackgroundColor=none;strokeWidth=1;fontFamily=Verdana;fontSize=12;align=center;" vertex="1" parent="4loeCHfUMF7lGxp9gsLd-17">
          <mxGeometry x="45" y="100" width="10" height="490" as="geometry" />
        </mxCell>
        <mxCell id="4loeCHfUMF7lGxp9gsLd-19" value="[Authorization OK]" style="text;html=1;align=center;verticalAlign=middle;resizable=0;points=[];autosize=1;strokeColor=none;fillColor=none;" vertex="1" parent="4loeCHfUMF7lGxp9gsLd-17">
          <mxGeometry x="-85" y="370" width="120" height="30" as="geometry" />
        </mxCell>
        <mxCell id="4loeCHfUMF7lGxp9gsLd-20" value="[Authorization OK]" style="text;html=1;align=center;verticalAlign=middle;resizable=0;points=[];autosize=1;strokeColor=none;fillColor=none;" vertex="1" parent="4loeCHfUMF7lGxp9gsLd-17">
          <mxGeometry x="-85" y="490" width="120" height="30" as="geometry" />
        </mxCell>
        <mxCell id="BmvCwLx_1x8dqe_CR5D9-7" value="User" style="shape=umlLifeline;perimeter=lifelinePerimeter;whiteSpace=wrap;html=1;container=1;collapsible=0;recursiveResize=0;outlineConnect=0;rounded=1;shadow=0;comic=0;labelBackgroundColor=none;strokeWidth=1;fontFamily=Verdana;fontSize=12;align=center;" vertex="1" parent="1">
          <mxGeometry x="100" y="90" width="100" height="660" as="geometry" />
        </mxCell>
        <mxCell id="BmvCwLx_1x8dqe_CR5D9-8" value="" style="html=1;points=[];perimeter=orthogonalPerimeter;rounded=0;shadow=0;comic=0;labelBackgroundColor=none;strokeWidth=1;fontFamily=Verdana;fontSize=12;align=center;" vertex="1" parent="BmvCwLx_1x8dqe_CR5D9-7">
          <mxGeometry x="45" y="100" width="10" height="490" as="geometry" />
        </mxCell>
        <mxCell id="BmvCwLx_1x8dqe_CR5D9-9" value="" style="shape=partialRectangle;whiteSpace=wrap;html=1;bottom=0;top=0;fillColor=none;" vertex="1" parent="BmvCwLx_1x8dqe_CR5D9-7">
          <mxGeometry x="-20" y="325" width="500" height="335" as="geometry" />
        </mxCell>
        <mxCell id="BmvCwLx_1x8dqe_CR5D9-10" value="" style="shape=partialRectangle;whiteSpace=wrap;html=1;left=0;right=0;fillColor=none;" vertex="1" parent="BmvCwLx_1x8dqe_CR5D9-7">
          <mxGeometry x="-20" y="325" width="500" height="335" as="geometry" />
        </mxCell>
        <mxCell id="BmvCwLx_1x8dqe_CR5D9-11" value="" style="shape=partialRectangle;whiteSpace=wrap;html=1;bottom=0;top=0;fillColor=none;" vertex="1" parent="BmvCwLx_1x8dqe_CR5D9-7">
          <mxGeometry x="-20" y="325" width="50" height="35" as="geometry" />
        </mxCell>
        <mxCell id="BmvCwLx_1x8dqe_CR5D9-12" value="Alt" style="shape=partialRectangle;whiteSpace=wrap;html=1;left=0;right=0;fillColor=none;" vertex="1" parent="BmvCwLx_1x8dqe_CR5D9-7">
          <mxGeometry x="-20" y="325" width="50" height="35" as="geometry" />
        </mxCell>
        <mxCell id="BmvCwLx_1x8dqe_CR5D9-21" value="" style="endArrow=none;dashed=1;html=1;dashPattern=1 3;strokeWidth=2;rounded=0;exitX=0;exitY=0.431;exitDx=0;exitDy=0;exitPerimeter=0;entryX=1;entryY=0.428;entryDx=0;entryDy=0;entryPerimeter=0;" edge="1" parent="BmvCwLx_1x8dqe_CR5D9-7" source="BmvCwLx_1x8dqe_CR5D9-10" target="BmvCwLx_1x8dqe_CR5D9-10">
          <mxGeometry width="50" height="50" relative="1" as="geometry">
            <mxPoint x="390" y="420" as="sourcePoint" />
            <mxPoint x="440" y="370" as="targetPoint" />
          </mxGeometry>
        </mxCell>
        <mxCell id="4loeCHfUMF7lGxp9gsLd-21" value="Model" style="shape=umlLifeline;perimeter=lifelinePerimeter;whiteSpace=wrap;html=1;container=1;collapsible=0;recursiveResize=0;outlineConnect=0;rounded=1;shadow=0;comic=0;labelBackgroundColor=none;strokeWidth=1;fontFamily=Verdana;fontSize=12;align=center;" vertex="1" parent="1">
          <mxGeometry x="410" y="90" width="100" height="590" as="geometry" />
        </mxCell>
        <mxCell id="4loeCHfUMF7lGxp9gsLd-22" value="" style="html=1;points=[];perimeter=orthogonalPerimeter;rounded=0;shadow=0;comic=0;labelBackgroundColor=none;strokeWidth=1;fontFamily=Verdana;fontSize=12;align=center;" vertex="1" parent="4loeCHfUMF7lGxp9gsLd-21">
          <mxGeometry x="45" y="120" width="10" height="470" as="geometry" />
        </mxCell>
        <mxCell id="BmvCwLx_1x8dqe_CR5D9-14" value="Launch App" style="html=1;verticalAlign=bottom;endArrow=block;entryX=0;entryY=0;labelBackgroundColor=none;fontFamily=Verdana;fontSize=12;edgeStyle=elbowEdgeStyle;elbow=vertical;" edge="1" parent="1" source="BmvCwLx_1x8dqe_CR5D9-8" target="BmvCwLx_1x8dqe_CR5D9-2">
          <mxGeometry x="0.0076" relative="1" as="geometry">
            <mxPoint x="230" y="200" as="sourcePoint" />
            <mxPoint as="offset" />
          </mxGeometry>
        </mxCell>
        <mxCell id="4loeCHfUMF7lGxp9gsLd-23" value="User" style="shape=umlLifeline;perimeter=lifelinePerimeter;whiteSpace=wrap;html=1;container=1;collapsible=0;recursiveResize=0;outlineConnect=0;rounded=1;shadow=0;comic=0;labelBackgroundColor=none;strokeWidth=1;fontFamily=Verdana;fontSize=12;align=center;" vertex="1" parent="1">
          <mxGeometry x="100" y="90" width="100" height="660" as="geometry" />
        </mxCell>
        <mxCell id="4loeCHfUMF7lGxp9gsLd-24" value="" style="html=1;points=[];perimeter=orthogonalPerimeter;rounded=0;shadow=0;comic=0;labelBackgroundColor=none;strokeWidth=1;fontFamily=Verdana;fontSize=12;align=center;" vertex="1" parent="4loeCHfUMF7lGxp9gsLd-23">
          <mxGeometry x="45" y="100" width="10" height="490" as="geometry" />
        </mxCell>
        <mxCell id="4loeCHfUMF7lGxp9gsLd-25" value="" style="shape=partialRectangle;whiteSpace=wrap;html=1;bottom=0;top=0;fillColor=none;" vertex="1" parent="4loeCHfUMF7lGxp9gsLd-23">
          <mxGeometry x="-20" y="325" width="500" height="335" as="geometry" />
        </mxCell>
        <mxCell id="4loeCHfUMF7lGxp9gsLd-26" value="" style="shape=partialRectangle;whiteSpace=wrap;html=1;left=0;right=0;fillColor=none;" vertex="1" parent="4loeCHfUMF7lGxp9gsLd-23">
          <mxGeometry x="-20" y="325" width="500" height="335" as="geometry" />
        </mxCell>
        <mxCell id="4loeCHfUMF7lGxp9gsLd-27" value="" style="shape=partialRectangle;whiteSpace=wrap;html=1;bottom=0;top=0;fillColor=none;" vertex="1" parent="4loeCHfUMF7lGxp9gsLd-23">
          <mxGeometry x="-20" y="325" width="50" height="35" as="geometry" />
        </mxCell>
        <mxCell id="4loeCHfUMF7lGxp9gsLd-28" value="Alt" style="shape=partialRectangle;whiteSpace=wrap;html=1;left=0;right=0;fillColor=none;" vertex="1" parent="4loeCHfUMF7lGxp9gsLd-23">
          <mxGeometry x="-20" y="325" width="50" height="35" as="geometry" />
        </mxCell>
        <mxCell id="4loeCHfUMF7lGxp9gsLd-29" value="Error Code" style="html=1;verticalAlign=bottom;endArrow=block;labelBackgroundColor=none;fontFamily=Verdana;fontSize=12;" edge="1" parent="1">
          <mxGeometry relative="1" as="geometry">
            <mxPoint x="460" y="520" as="sourcePoint" />
            <mxPoint x="300" y="520" as="targetPoint" />
          </mxGeometry>
        </mxCell>
        <mxCell id="4loeCHfUMF7lGxp9gsLd-30" value="Launch App, Specify Time" style="html=1;verticalAlign=bottom;endArrow=block;entryX=0;entryY=0;labelBackgroundColor=none;fontFamily=Verdana;fontSize=12;edgeStyle=elbowEdgeStyle;elbow=vertical;" edge="1" parent="1" source="4loeCHfUMF7lGxp9gsLd-24" target="4loeCHfUMF7lGxp9gsLd-18">
          <mxGeometry relative="1" as="geometry">
            <mxPoint x="230" y="200" as="sourcePoint" />
          </mxGeometry>
        </mxCell>
        <mxCell id="gicz02tzic3etKsb4Svg-2" value="" style="shape=partialRectangle;whiteSpace=wrap;html=1;left=0;right=0;fillColor=none;" vertex="1" parent="1">
          <mxGeometry x="70" y="405" width="600" height="335" as="geometry" />
        </mxCell>
        <mxCell id="4loeCHfUMF7lGxp9gsLd-31" value="Run Algorithm" style="html=1;verticalAlign=bottom;endArrow=block;entryX=0;entryY=0;labelBackgroundColor=none;fontFamily=Verdana;fontSize=12;edgeStyle=elbowEdgeStyle;elbow=vertical;" edge="1" parent="1" source="4loeCHfUMF7lGxp9gsLd-18" target="4loeCHfUMF7lGxp9gsLd-22">
          <mxGeometry relative="1" as="geometry">
            <mxPoint x="380" y="210" as="sourcePoint" />
          </mxGeometry>
        </mxCell>
        <mxCell id="gicz02tzic3etKsb4Svg-3" value="Input Into Open Weather API" style="html=1;verticalAlign=bottom;endArrow=block;labelBackgroundColor=none;fontFamily=Verdana;fontSize=12;edgeStyle=elbowEdgeStyle;elbow=vertical;" edge="1" parent="1" target="7baba1c4bc27f4b0-3">
          <mxGeometry x="0.204" relative="1" as="geometry">
            <mxPoint x="300" y="270" as="sourcePoint" />
            <Array as="points">
              <mxPoint x="305" y="270" />
            </Array>
            <mxPoint x="430" y="270" as="targetPoint" />
            <mxPoint as="offset" />
          </mxGeometry>
        </mxCell>
        <mxCell id="gicz02tzic3etKsb4Svg-4" value="Get Location" style="html=1;verticalAlign=bottom;endArrow=block;labelBackgroundColor=none;fontFamily=Verdana;fontSize=12;edgeStyle=elbowEdgeStyle;elbow=vertical;" edge="1" parent="1" target="7baba1c4bc27f4b0-2">
          <mxGeometry x="0.0028" relative="1" as="geometry">
            <mxPoint x="410" y="240" as="sourcePoint" />
            <Array as="points">
              <mxPoint x="440" y="240" />
            </Array>
            <mxPoint x="310" y="240" as="targetPoint" />
            <mxPoint as="offset" />
          </mxGeometry>
        </mxCell>
        <mxCell id="gicz02tzic3etKsb4Svg-6" value="" style="endArrow=classic;startArrow=classic;html=1;rounded=0;" edge="1" parent="1" source="7baba1c4bc27f4b0-2">
          <mxGeometry width="50" height="50" relative="1" as="geometry">
            <mxPoint x="340" y="348" as="sourcePoint" />
            <mxPoint x="450" y="270" as="targetPoint" />
            <Array as="points">
              <mxPoint x="340" y="270" />
            </Array>
          </mxGeometry>
        </mxCell>
        <mxCell id="gicz02tzic3etKsb4Svg-7" value="Request to Server" style="text;html=1;align=center;verticalAlign=middle;resizable=0;points=[];autosize=1;strokeColor=none;fillColor=none;" vertex="1" parent="1">
          <mxGeometry x="320" y="268" width="120" height="30" as="geometry" />
        </mxCell>
        <mxCell id="gicz02tzic3etKsb4Svg-9" value="Return Weather Data" style="html=1;verticalAlign=bottom;endArrow=block;labelBackgroundColor=none;fontFamily=Verdana;fontSize=12;edgeStyle=elbowEdgeStyle;elbow=vertical;" edge="1" parent="1" target="7baba1c4bc27f4b0-2">
          <mxGeometry x="0.0028" relative="1" as="geometry">
            <mxPoint x="410" y="369.57" as="sourcePoint" />
            <Array as="points">
              <mxPoint x="440" y="369.57" />
            </Array>
            <mxPoint x="310" y="370" as="targetPoint" />
            <mxPoint as="offset" />
          </mxGeometry>
        </mxCell>
        <mxCell id="gicz02tzic3etKsb4Svg-10" value="" style="shape=partialRectangle;whiteSpace=wrap;html=1;bottom=0;top=0;fillColor=none;" vertex="1" parent="1">
          <mxGeometry x="70" y="405" width="600" height="335" as="geometry" />
        </mxCell>
        <mxCell id="gicz02tzic3etKsb4Svg-13" value="Don&#39;t have permission" style="html=1;verticalAlign=bottom;endArrow=block;labelBackgroundColor=none;fontFamily=Verdana;fontSize=12;edgeStyle=elbowEdgeStyle;elbow=vertical;" edge="1" parent="1">
          <mxGeometry x="0.0028" relative="1" as="geometry">
            <mxPoint x="410" y="510" as="sourcePoint" />
            <Array as="points">
              <mxPoint x="440" y="510" />
            </Array>
            <mxPoint x="290" y="510" as="targetPoint" />
            <mxPoint as="offset" />
          </mxGeometry>
        </mxCell>
        <mxCell id="gicz02tzic3etKsb4Svg-14" value="Unable to Generate Song List" style="html=1;verticalAlign=bottom;endArrow=block;labelBackgroundColor=none;fontFamily=Verdana;fontSize=12;edgeStyle=elbowEdgeStyle;elbow=vertical;" edge="1" parent="1">
          <mxGeometry x="0.0028" relative="1" as="geometry">
            <mxPoint x="560" y="590" as="sourcePoint" />
            <Array as="points">
              <mxPoint x="590" y="590" />
            </Array>
            <mxPoint x="300" y="590.4300000000001" as="targetPoint" />
            <mxPoint as="offset" />
          </mxGeometry>
        </mxCell>
        <mxCell id="gicz02tzic3etKsb4Svg-15" value="Request or Validation failed" style="html=1;verticalAlign=bottom;endArrow=block;labelBackgroundColor=none;fontFamily=Verdana;fontSize=12;edgeStyle=elbowEdgeStyle;elbow=vertical;" edge="1" parent="1">
          <mxGeometry x="0.0028" relative="1" as="geometry">
            <mxPoint x="415" y="550" as="sourcePoint" />
            <Array as="points">
              <mxPoint x="445" y="550" />
            </Array>
            <mxPoint x="295" y="550" as="targetPoint" />
            <mxPoint as="offset" />
          </mxGeometry>
        </mxCell>
        <mxCell id="gicz02tzic3etKsb4Svg-16" value="" style="shape=partialRectangle;whiteSpace=wrap;html=1;left=0;right=0;fillColor=none;" vertex="1" parent="1">
          <mxGeometry x="70" y="405" width="50" height="45" as="geometry" />
        </mxCell>
        <mxCell id="gicz02tzic3etKsb4Svg-19" value="Alt" style="shape=partialRectangle;whiteSpace=wrap;html=1;bottom=0;top=0;fillColor=none;" vertex="1" parent="1">
          <mxGeometry x="70" y="405" width="50" height="45" as="geometry" />
        </mxCell>
        <mxCell id="gicz02tzic3etKsb4Svg-20" value="[Authorization OK]" style="text;html=1;align=center;verticalAlign=middle;resizable=0;points=[];autosize=1;strokeColor=none;fillColor=none;" vertex="1" parent="1">
          <mxGeometry x="160" y="440" width="120" height="30" as="geometry" />
        </mxCell>
        <mxCell id="gicz02tzic3etKsb4Svg-21" value="[Authorization OK]" style="text;html=1;align=center;verticalAlign=middle;resizable=0;points=[];autosize=1;strokeColor=none;fillColor=none;" vertex="1" parent="1">
          <mxGeometry x="160" y="530" width="120" height="30" as="geometry" />
        </mxCell>
        <mxCell id="gicz02tzic3etKsb4Svg-23" value="" style="endArrow=none;dashed=1;html=1;rounded=0;exitX=0;exitY=0.25;exitDx=0;exitDy=0;entryX=1;entryY=0.25;entryDx=0;entryDy=0;" edge="1" parent="1" source="gicz02tzic3etKsb4Svg-10" target="gicz02tzic3etKsb4Svg-10">
          <mxGeometry width="50" height="50" relative="1" as="geometry">
            <mxPoint x="490" y="470" as="sourcePoint" />
            <mxPoint x="540" y="420" as="targetPoint" />
          </mxGeometry>
        </mxCell>
      </root>
    </mxGraphModel>
  </diagram>
</mxfile>
